<?xml version="1.0" encoding="UTF-8" standalone="no"?><!DOCTYPE svg PUBLIC "-//W3C//DTD SVG 1.1//EN" "http://www.w3.org/Graphics/SVG/1.1/DTD/svg11.dtd"><svg width="100%" height="100%" viewBox="0 0 3508 4961" version="1.1" xmlns="http://www.w3.org/2000/svg" xmlns:xlink="http://www.w3.org/1999/xlink" xml:space="preserve" xmlns:serif="http://www.serif.com/" style="fill-rule:evenodd;clip-rule:evenodd;stroke-linejoin:round;stroke-miterlimit:2;"><path d="M677.175,2462.167c251.407,-576.912 468.153,-1114.216 373.182,-1211.414c-199.067,-203.734 -393.719,-129.433 -485.869,-435.81c-92.15,-306.376 303.3,-527.094 303.3,-527.094c0,0 1855.153,-463.684 2373.397,44.17c359.141,351.941 -217.533,1365.343 -479.28,2130.148l-2084.73,0Z" style="fill:#fff;"/><path d="M2765.319,2449.851c-251.407,576.912 -468.153,1114.216 -373.182,1211.414c199.067,203.734 873.698,185.382 965.849,491.758c92.15,306.376 -441.699,368.083 -441.699,368.083c0,0 -2196.733,566.747 -2714.977,58.893c-359.141,-351.941 217.533,-1365.343 479.28,-2130.148l2084.73,0Z" style="fill:#fff;"/></svg>